<?xml version="1.0" standalone="no"?>
<!DOCTYPE svg PUBLIC "-//W3C//DTD SVG 20010904//EN"
 "http://www.w3.org/TR/2001/REC-SVG-20010904/DTD/svg10.dtd">
<svg version="1.0" xmlns="http://www.w3.org/2000/svg"
 width="16.000000pt" height="16.000000pt" viewBox="0 0 16.000000 16.000000"
 preserveAspectRatio="xMidYMid meet">
<metadata>
Created by potrace 1.11, written by Peter Selinger 2001-2013
</metadata>
<g transform="translate(0.000000,16.000000) scale(0.005281,-0.005281)"
fill="#000000" stroke="none">
<path d="M2330 3004 c-189 -68 -244 -310 -102 -452 84 -84 201 -107 306 -59
176 81 218 292 87 445 -58 68 -197 99 -291 66z"/>
<path d="M1008 2816 c-86 -23 -154 -82 -193 -168 -15 -33 -125 -207 -245 -387
-296 -442 -354 -560 -353 -716 0 -102 41 -167 154 -246 l57 -40 -37 -72 c-68
-134 -122 -287 -147 -410 -2 -10 -5 -26 -8 -35 -5 -17 -8 -33 -25 -132 -29
-166 -37 -399 -17 -439 29 -56 -4 -54 895 -54 902 1 862 -2 891 54 11 19 14
182 5 264 -10 96 -22 184 -31 230 -2 11 -7 34 -10 50 -9 52 -63 241 -84 297
-12 29 -42 98 -68 152 -30 64 -43 101 -35 103 6 2 21 13 34 24 12 10 26 19 30
19 4 0 31 23 59 52 63 64 84 127 76 224 -3 36 -11 74 -16 84 -6 11 -8 20 -4
20 3 0 1 7 -6 15 -7 8 -10 15 -7 15 18 0 -123 248 -237 417 -217 321 -296 445
-325 508 -63 137 -210 208 -353 171z m-150 -400 c19 -43 76 -99 121 -119 60
-26 143 -30 198 -8 53 20 115 76 134 120 8 17 16 31 19 31 10 -1 370 -542 413
-622 78 -143 103 -234 84 -308 -11 -45 -36 -71 -121 -128 l-69 -45 -20 29
c-52 73 -217 219 -268 236 -7 2 -2 26 15 68 91 222 96 382 14 456 -60 55 -132
73 -292 72 -212 0 -306 -43 -339 -155 -25 -85 -11 -183 50 -341 20 -51 34 -94
32 -95 -2 -2 -30 -20 -62 -40 -59 -39 -150 -124 -202 -190 l-30 -38 -79 53
c-88 59 -116 99 -116 164 0 88 60 225 182 411 146 224 313 471 319 472 3 1 11
-10 17 -23z m393 -345 c36 -12 77 -46 67 -57 -3 -2 -18 -7 -33 -10 -41 -7
-116 -48 -152 -83 -18 -17 -35 -31 -37 -31 -2 0 -19 14 -37 32 -38 34 -116 74
-166 84 -18 3 -33 10 -33 15 0 17 41 44 83 55 55 14 262 11 308 -5z m-286
-176 c25 -14 59 -45 76 -68 42 -59 63 -64 90 -24 36 52 87 95 134 112 24 10
48 16 53 14 14 -6 -32 -159 -77 -257 -48 -104 -46 -121 26 -156 199 -97 355
-308 463 -624 17 -52 29 -97 25 -100 -8 -9 -141 -8 -175 0 -36 9 -99 33 -142
53 l-37 18 -58 -60 c-32 -33 -73 -68 -92 -77 -111 -58 -240 -54 -343 10 -38
24 -108 92 -108 105 0 19 -42 18 -81 -1 -86 -44 -237 -72 -287 -53 -19 8 -19
9 4 83 13 41 28 83 34 92 5 10 10 22 10 28 0 22 103 217 147 278 25 35 70 89
100 119 57 56 166 133 189 133 16 0 54 39 54 56 0 7 -13 41 -29 76 -39 84 -78
196 -86 246 l-6 40 35 -8 c20 -4 56 -20 81 -35z m-172 -1165 c156 -160 414
-162 581 -4 l46 43 63 -23 c94 -36 188 -49 258 -36 35 7 38 5 44 -19 10 -48
15 -76 21 -121 3 -25 9 -72 14 -105 4 -33 7 -88 6 -123 l-1 -64 -690 1 c-379
0 -714 0 -743 1 l-53 0 6 78 c12 169 40 343 57 353 5 4 24 3 42 -1 60 -13 214
12 276 45 34 19 30 20 73 -25z"/>
<path d="M2310 2339 c0 -44 3 -78 8 -76 4 3 29 15 56 27 l50 22 53 -26 c28
-14 54 -22 56 -18 3 6 2 109 -2 139 -1 8 -20 3 -57 -14 l-55 -25 -51 26 c-27
14 -52 26 -54 26 -2 0 -4 -36 -4 -81z"/>
<path d="M1995 2314 c-27 -29 -30 -49 -15 -121 9 -48 11 -58 30 -183 5 -36 17
-105 25 -155 9 -49 18 -101 19 -115 2 -14 9 -56 16 -95 6 -38 13 -81 15 -95 2
-14 11 -71 20 -128 14 -86 17 -198 18 -705 l2 -602 128 -2 127 -2 1 42 c0 23
1 230 2 461 2 411 2 419 23 432 17 12 23 12 39 0 18 -13 19 -34 20 -472 l0
-459 130 0 130 0 1 615 c0 338 3 629 7 645 3 17 9 48 12 70 3 23 7 52 10 65 3
13 7 41 10 62 3 20 8 50 10 65 2 15 6 39 9 53 3 14 7 43 11 64 3 21 7 48 10
60 2 12 7 37 9 56 5 36 33 215 41 259 7 42 19 116 20 126 3 26 -18 63 -41 74
-14 6 -65 11 -113 11 l-88 0 -28 -62 c-15 -35 -55 -119 -87 -188 -33 -69 -67
-142 -75 -163 -9 -21 -19 -35 -22 -30 -4 4 -29 55 -56 113 -26 58 -72 156
-101 218 l-53 112 -96 0 c-91 0 -97 -1 -120 -26z"/>
</g>
</svg>
