<?xml version="1.0" standalone="no"?>
<!DOCTYPE svg PUBLIC "-//W3C//DTD SVG 20010904//EN"
 "http://www.w3.org/TR/2001/REC-SVG-20010904/DTD/svg10.dtd">
<svg version="1.0" xmlns="http://www.w3.org/2000/svg"
 width="260.000000pt" height="260.000000pt" viewBox="0 0 260.000000 260.000000"
 preserveAspectRatio="xMidYMid meet">
<metadata>
Created by potrace 1.11, written by Peter Selinger 2001-2013
</metadata>
<g transform="translate(0.000000,260.000000) scale(0.100000,-0.100000)"
fill="#000000" stroke="none">
<path d="M1250 2590 c0 -6 -5 -8 -10 -5 -6 4 -16 2 -23 -3 -7 -5 -19 -10 -27
-10 -28 -1 -88 -13 -142 -28 -13 -4 -39 -7 -60 -8 -20 0 -36 -5 -35 -10 1 -5
-11 -10 -28 -12 -64 -6 -114 -17 -110 -23 2 -4 -8 -7 -23 -8 -45 -2 -72 -7
-72 -14 0 -3 -12 -4 -26 -1 -17 3 -25 1 -21 -5 4 -6 -4 -9 -18 -7 -15 1 -29
-4 -35 -14 -6 -11 -9 -12 -10 -4 0 9 -7 11 -22 6 -13 -4 -29 -7 -35 -7 -7 0
-13 -5 -13 -11 0 -6 -4 -6 -11 1 -8 8 -19 7 -40 -4 -16 -8 -33 -12 -39 -8 -5
3 -10 2 -10 -2 0 -5 -8 -9 -17 -10 -50 -4 -99 -17 -105 -27 -6 -8 -8 -7 -8 2
0 8 -17 3 -52 -14 -30 -16 -69 -27 -89 -27 -29 0 -39 -4 -48 -23 -8 -18 -8
-24 2 -24 7 0 8 -3 2 -8 -12 -8 -15 -22 -19 -72 -1 -20 -6 -42 -10 -48 -4 -7
-3 -12 1 -12 5 0 9 -15 10 -32 1 -56 7 -88 15 -88 4 0 8 -9 8 -20 0 -11 3 -20
8 -20 4 0 36 -27 71 -60 35 -33 65 -60 67 -60 2 0 25 -20 50 -45 36 -34 47
-52 47 -75 0 -38 0 -38 -48 -41 -22 -2 -53 -10 -70 -19 -31 -17 -75 -19 -109
-5 -14 6 -17 5 -12 -3 4 -7 2 -12 -3 -12 -6 0 -10 -3 -10 -7 1 -5 0 -11 -1
-15 -1 -5 -4 -12 -5 -18 -1 -5 -3 -11 -5 -12 -10 -14 -20 -147 -11 -152 4 -3
6 -21 6 -40 -1 -20 2 -36 7 -36 5 0 6 -4 3 -10 -3 -5 -1 -10 5 -10 6 0 9 -4 5
-9 -3 -5 -1 -12 5 -16 6 -4 8 -11 5 -16 -4 -5 1 -12 10 -15 12 -5 13 -9 4 -20
-10 -12 -8 -13 7 -8 18 7 18 6 -1 -17 -11 -13 -13 -19 -6 -12 7 6 20 9 27 6
12 -4 12 -8 2 -21 -10 -12 -10 -14 -1 -8 8 4 13 1 13 -9 0 -9 5 -13 10 -10 6
4 10 3 9 -2 -3 -19 2 -34 10 -29 5 4 7 -4 4 -16 -3 -17 -2 -19 5 -9 8 10 11 6
17 -18 3 -17 11 -31 16 -31 6 0 8 -4 4 -9 -3 -5 2 -17 11 -25 9 -9 13 -24 10
-33 -5 -13 -4 -14 9 -3 13 11 14 10 10 -2 -3 -8 1 -20 9 -27 8 -7 12 -19 9
-27 -3 -9 0 -12 9 -9 9 4 15 0 15 -9 0 -8 -4 -13 -9 -10 -4 3 -8 0 -8 -5 0
-10 14 -15 32 -12 4 0 5 -5 2 -13 -3 -8 0 -17 6 -21 8 -5 8 -11 -1 -21 -10
-12 -9 -13 5 -8 11 4 16 1 16 -11 0 -9 5 -13 11 -9 7 4 6 -2 -2 -17 -11 -22
-11 -23 5 -10 9 8 16 10 15 5 -4 -23 2 -35 14 -28 7 5 6 0 -3 -11 -8 -10 -10
-16 -3 -12 14 9 48 -56 39 -72 -4 -5 -1 -13 5 -17 8 -4 9 -3 5 4 -4 7 -2 12 5
12 6 0 9 -8 6 -20 -3 -13 0 -20 8 -20 18 0 24 -21 13 -43 -9 -17 -7 -17 13 -7
19 11 21 10 16 -4 -4 -9 -2 -16 4 -16 6 0 8 -4 4 -9 -3 -5 2 -17 11 -25 9 -9
13 -23 10 -32 -4 -9 3 -19 19 -26 23 -10 23 -12 7 -25 -16 -12 -16 -13 1 -7
12 4 17 1 17 -11 0 -10 5 -13 12 -9 7 5 9 2 5 -9 -3 -9 0 -18 9 -21 8 -3 14
-13 14 -21 0 -9 7 -23 15 -32 8 -8 13 -19 10 -24 -4 -5 -1 -9 4 -9 6 0 11 -7
11 -15 0 -8 5 -15 10 -15 6 0 10 -12 10 -26 0 -14 4 -23 10 -19 5 3 10 -4 10
-16 0 -19 -2 -20 -17 -8 -15 13 -15 12 -2 -9 8 -12 15 -18 17 -12 2 5 7 10 11
10 12 0 9 -34 -3 -43 -6 -5 -1 -6 11 -2 18 5 21 2 18 -13 -2 -10 1 -25 7 -33
7 -11 8 -9 3 6 -5 17 -3 17 20 -5 22 -21 28 -22 35 -10 8 13 10 12 10 -2 0
-10 4 -18 9 -18 4 0 7 11 6 25 -2 14 1 27 5 30 5 3 7 -4 5 -15 -3 -15 1 -20
20 -20 13 0 26 -6 28 -12 4 -10 6 -9 6 1 1 11 4 11 19 0 15 -13 16 -12 3 3 -7
10 -16 16 -20 14 -4 -3 -13 -1 -21 5 -11 6 -12 9 -2 9 8 0 10 5 6 13 -4 6 2 4
13 -6 11 -9 23 -14 26 -10 4 3 7 2 7 -3 0 -5 15 -10 34 -10 22 0 33 5 32 14
-1 8 7 16 17 17 9 2 17 0 17 -5 0 -4 7 -10 15 -14 12 -4 13 -2 6 13 -7 13 -6
18 4 18 8 0 12 -4 9 -8 -2 -4 0 -10 6 -14 5 -3 10 2 10 11 0 16 1 16 19 0 13
-12 19 -13 17 -4 0 7 4 15 9 16 6 2 17 9 25 15 13 10 13 10 1 -5 -7 -10 -18
-15 -24 -11 -6 3 -7 1 -3 -5 5 -9 13 -9 29 0 12 6 23 9 24 7 1 -2 5 0 10 5 5
6 2 6 -7 1 -8 -5 -12 -4 -7 0 9 11 39 16 33 7 -2 -4 13 -7 34 -7 28 0 36 3 29
12 -7 8 -5 11 8 8 10 -1 17 -8 15 -15 -1 -6 2 -9 8 -5 6 3 8 11 5 16 -9 14 49
11 65 -4 12 -10 12 -9 3 3 -10 13 -8 18 9 29 11 7 17 8 14 2 -4 -5 4 -15 16
-22 21 -11 22 -11 9 5 -10 12 -11 20 -4 27 8 8 13 7 18 -2 6 -8 4 -10 -5 -4
-9 5 -11 4 -6 -4 6 -9 11 -9 21 -1 19 16 65 20 65 6 0 -8 2 -8 8 0 4 6 23 15
42 18 26 5 31 4 20 -3 -9 -7 -10 -11 -3 -11 6 0 14 4 17 9 3 5 19 7 36 6 16
-1 27 1 24 6 -3 5 0 10 5 10 14 2 30 6 34 9 9 7 37 6 37 -1 0 -6 5 -7 10 -4 6
4 7 11 4 17 -4 7 -2 8 5 4 6 -4 9 -11 6 -16 -3 -5 -1 -12 5 -15 6 -4 9 -1 8 6
-2 7 5 15 16 17 13 3 16 0 11 -9 -6 -8 -4 -10 4 -5 7 5 10 15 7 25 -4 9 3 5
16 -9 13 -15 19 -18 15 -8 -3 10 -2 20 3 23 6 4 10 1 10 -5 0 -7 7 -5 16 4 21
21 30 20 13 -1 -12 -15 -12 -16 4 -10 10 4 21 7 23 7 3 0 2 6 -2 13 -4 6 -4 9
1 5 4 -4 14 -3 21 3 8 7 14 6 20 -2 5 -8 3 -9 -6 -4 -9 6 -11 4 -5 -5 6 -10
11 -9 22 5 8 12 13 14 13 6 0 -10 3 -11 14 -2 11 9 15 9 19 -1 4 -8 6 -7 6 5
1 11 9 17 24 17 16 0 18 -3 8 -9 -9 -6 -10 -11 -2 -15 6 -4 11 -3 11 3 0 6 10
15 21 22 17 9 20 8 13 -3 -6 -11 -5 -11 9 1 9 7 17 10 17 5 0 -5 5 -2 10 6 5
8 10 10 10 4 0 -15 50 -5 50 10 0 6 5 4 10 -4 9 -13 10 -13 10 0 0 13 1 13 10
0 6 -10 10 -11 10 -2 0 6 12 12 28 12 15 0 34 6 41 13 11 9 13 9 7 0 -13 -24
9 -13 28 14 11 14 14 23 8 19 -7 -4 -15 0 -19 11 -4 10 -15 25 -25 34 -10 9
-18 21 -18 28 0 6 -4 11 -10 11 -5 0 -10 7 -10 15 0 8 -5 15 -11 15 -8 0 -7 5
2 16 8 9 9 18 3 22 -10 7 -13 92 -4 92 3 0 6 14 7 31 1 18 4 33 6 35 3 3 39
11 59 13 13 2 -1 43 -22 61 -11 9 -20 22 -20 29 0 6 -3 11 -7 11 -5 0 -30 28
-58 63 -27 34 -53 64 -57 65 -18 8 -6 22 17 22 18 0 25 5 25 18 0 10 -3 22 -7
26 -4 3 -8 16 -10 28 -2 12 -8 27 -14 34 -6 7 -8 18 -4 24 3 5 1 10 -6 10 -7
0 -10 3 -6 6 3 4 0 19 -8 34 -8 15 -11 30 -8 34 4 3 1 6 -5 6 -7 0 -12 11 -12
25 0 14 -5 25 -11 25 -6 0 -9 9 -6 20 3 12 0 20 -7 20 -6 0 -12 8 -13 18 -2
28 -17 72 -35 107 -6 11 -7 17 -3 13 4 -4 19 -2 34 4 27 10 68 20 89 21 6 0
12 3 12 7 0 5 18 9 58 12 6 1 12 4 12 8 0 4 10 7 23 6 12 -1 33 4 46 11 14 6
28 10 33 7 4 -3 8 -1 8 5 0 5 9 8 20 6 11 -2 20 1 20 6 0 6 4 8 8 5 4 -2 22 2
40 11 27 13 29 17 17 29 -7 8 -18 14 -23 14 -6 0 -13 7 -16 16 -3 8 -10 13
-15 10 -4 -3 -25 8 -45 25 l-36 31 4 87 c3 92 18 136 42 127 8 -3 14 -1 14 4
0 6 9 10 19 10 20 0 35 23 23 35 -4 4 -8 11 -8 16 -1 5 -2 13 -3 17 0 5 -19
17 -41 28 -22 10 -40 23 -40 27 0 5 -4 6 -9 2 -5 -3 -16 2 -24 10 -9 8 -18 15
-21 15 -4 0 -24 11 -45 24 -21 14 -42 22 -45 19 -3 -4 -6 -1 -6 5 0 7 -6 12
-13 12 -7 0 -22 8 -33 18 -11 10 -25 17 -32 14 -6 -2 -12 1 -12 8 0 6 -4 8
-10 5 -5 -3 -10 -2 -10 3 0 5 -8 12 -17 15 -10 4 -40 19 -68 36 -27 16 -54 27
-59 23 -5 -3 -6 0 -3 5 4 6 -10 18 -33 27 -22 9 -40 21 -40 27 0 5 -5 7 -12 3
-6 -4 -17 1 -24 10 -7 10 -16 18 -21 18 -22 3 -43 11 -43 17 0 4 -16 13 -35
21 -19 8 -35 18 -35 22 0 5 -4 7 -9 4 -5 -3 -14 1 -21 9 -7 8 -19 15 -26 15
-8 0 -14 5 -14 11 0 5 -4 8 -9 4 -5 -3 -17 2 -25 11 -9 8 -16 12 -16 7 0 -4
-4 -3 -8 3 -4 6 -31 22 -59 36 -29 14 -50 28 -46 31 3 4 -4 7 -16 7 -12 0 -19
4 -16 10 3 6 -1 7 -9 4 -9 -3 -16 -2 -16 2 0 10 -60 40 -72 36 -5 -1 -8 3 -8
10 0 6 -3 8 -7 5 -3 -4 -12 -2 -20 4 -9 9 -13 8 -13 0 0 -9 -5 -9 -20 -1 -14
8 -20 8 -20 0z m20 -2386 c0 -8 -19 -13 -24 -6 -3 5 1 9 9 9 8 0 15 -2 15 -3z"/>
<path d="M615 411 c-3 -5 -2 -12 3 -15 5 -3 9 1 9 9 0 17 -3 19 -12 6z"/>
<path d="M630 376 c0 -2 8 -10 18 -17 15 -13 16 -12 3 4 -13 16 -21 21 -21 13z"/>
<path d="M1716 272 c-3 -5 1 -9 9 -9 8 0 12 4 9 9 -3 4 -7 8 -9 8 -2 0 -6 -4
-9 -8z"/>
<path d="M1481 231 c-8 -5 -9 -11 -3 -15 5 -3 12 1 16 9 6 17 6 18 -13 6z"/>
</g>
</svg>
