<?xml version="1.0" encoding="UTF-8" standalone="no"?>
<!-- Generator: Adobe Illustrator 16.0.4, SVG Export Plug-In . SVG Version: 6.00 Build 0)  -->
<!DOCTYPE svg  PUBLIC '-//W3C//DTD SVG 1.1//EN'  'http://www.w3.org/Graphics/SVG/1.1/DTD/svg11.dtd'>
<svg id="Layer_1" xmlns="http://www.w3.org/2000/svg" xml:space="preserve" height="85.333px" viewBox="0 0 349 85.333" width="349px" version="1.1" y="0px" x="0px" xmlns:xlink="http://www.w3.org/1999/xlink" enable-background="new 0 0 349 85.333">
	<path d="m34.785 11.152h-11.935v30.803h-9.86v-30.803h-11.934v-7.377h33.729v7.377z" fill="#2E62AE"/>
	<path d="m64.259 29.278h-21.091c0.139 2.255 0.995 3.979 2.569 5.174 1.577 1.197 3.902 1.794 6.971 1.794 1.94 0 3.824-0.349 5.651-1.049 1.819-0.699 3.263-1.448 4.322-2.251h1.021v7.402c-2.08 0.838-4.046 1.445-5.889 1.82-1.84 0.375-3.883 0.564-6.115 0.564-5.77 0-10.19-1.299-13.262-3.894-3.072-2.597-4.611-6.293-4.611-11.093 0-4.747 1.457-8.509 4.369-11.283s6.904-4.162 11.978-4.162c4.675 0 8.195 1.182 10.551 3.545 2.358 2.366 3.535 5.767 3.535 10.205v3.228zm-9.193-5.412c-0.051-1.919-0.528-3.363-1.428-4.332-0.905-0.966-2.306-1.451-4.216-1.451-1.771 0-3.227 0.459-4.366 1.375-1.139 0.917-1.778 2.387-1.913 4.408h11.923z" fill="#2E62AE"/>
	<path d="m85.765 42.733c-2.51 0-4.804-0.301-6.878-0.898-2.077-0.598-3.884-1.52-5.417-2.769-1.52-1.249-2.7-2.82-3.535-4.718-0.838-1.896-1.255-4.119-1.255-6.665 0-2.684 0.449-5 1.343-6.95 0.899-1.948 2.149-3.564 3.752-4.845 1.554-1.214 3.345-2.104 5.381-2.667 2.033-0.564 4.142-0.847 6.33-0.847 1.964 0 3.77 0.214 5.43 0.64 1.654 0.427 3.201 0.981 4.636 1.662v7.855h-1.304c-0.358-0.304-0.789-0.662-1.289-1.068-0.505-0.407-1.121-0.805-1.855-1.195-0.699-0.373-1.467-0.681-2.301-0.927-0.835-0.245-1.807-0.368-2.915-0.368-2.456 0-4.34 0.781-5.667 2.343-1.32 1.564-1.977 3.686-1.977 6.367 0 2.765 0.675 4.866 2.028 6.3 1.358 1.435 3.281 2.151 5.768 2.151 1.16 0 2.201-0.13 3.134-0.394 0.925-0.263 1.701-0.572 2.312-0.928 0.58-0.341 1.093-0.696 1.534-1.069 0.445-0.373 0.853-0.738 1.229-1.094h1.304v7.856c-1.453 0.681-2.969 1.224-4.549 1.625-1.582 0.402-3.33 0.603-5.239 0.603z" fill="#2E62AE"/>
	<path d="m130.58 41.955h-9.264v-14.282c0-1.162-0.062-2.321-0.178-3.474-0.118-1.155-0.325-2.005-0.616-2.554-0.338-0.631-0.838-1.093-1.495-1.382-0.654-0.293-1.572-0.437-2.75-0.437-0.832 0-1.68 0.138-2.543 0.41-0.855 0.274-1.792 0.71-2.799 1.307v20.412h-9.265v-39.884h9.265v14.278c1.642-1.282 3.211-2.265 4.724-2.948 1.51-0.684 3.183-1.026 5.024-1.026 3.106 0 5.528 0.906 7.276 2.716 1.75 1.812 2.621 4.521 2.621 8.125v18.739z" fill="#2E62AE"/>
	<path d="m138.2 41.188v-7.489h2.892l0.028 0.473c0.054 0.878 0.082 1.537 0.082 1.973 0 1.386 0.599 2.43 1.783 3.13 1.941 1.158 4.083 1.738 6.428 1.738 2.433 0 4.337-0.661 5.708-1.977 1.37-1.318 2.056-3.137 2.056-5.459 0-1.953-0.441-3.505-1.315-4.657-0.88-1.151-2.594-2.407-5.138-3.768l-2.887-1.573c-6.229-3.354-9.341-7.012-9.341-10.977 0-2.987 1.126-5.457 3.373-7.414 2.248-1.955 5.069-2.934 8.465-2.934 1.465 0 3.057 0.136 4.771 0.41 1.716 0.273 3.554 0.689 5.52 1.251v6.89h-3.042l-0.023-0.444c-0.054-0.943-0.087-1.633-0.087-2.071 0-1.465-0.551-2.543-1.657-3.233-1.108-0.689-2.843-1.035-5.201-1.035-1.969 0-3.572 0.614-4.793 1.844-1.229 1.23-1.841 2.849-1.841 4.854 0 1.71 0.42 3.123 1.266 4.239 0.843 1.117 2.366 2.268 4.566 3.453l2.892 1.569c4 2.168 6.695 4.052 8.089 5.659 1.395 1.608 2.09 3.624 2.09 6.052 0 3.229-1.26 5.915-3.78 8.053-2.521 2.139-5.668 3.208-9.443 3.208-2.195 0-4.251-0.149-6.172-0.449-1.91-0.296-3.67-0.736-5.29-1.316z" fill="#010101"/>
	<path d="m189.09 41.013c-2.864 1.082-5.663 1.624-8.397 1.624-4.368 0-7.909-1.388-10.623-4.167-2.717-2.778-4.074-6.395-4.074-10.851 0-4.455 1.306-8.024 3.92-10.707 2.617-2.682 6.096-4.022 10.45-4.022 2.219 0 5.128 0.424 8.724 1.271v6.784h-3.375l-0.027-0.47c0-3.902-1.81-5.854-5.425-5.854-2.626 0-4.716 1.135-6.268 3.406-1.553 2.271-2.327 5.343-2.327 9.223 0 3.965 0.917 7.088 2.752 9.376s4.327 3.432 7.484 3.432c2.714 0 5.11-0.435 7.185-1.306v2.261z" fill="#010101"/>
	<path d="m201.82 18.86c1.376-1.991 2.963-3.483 4.762-4.478 1.796-0.995 3.804-1.493 6.022-1.493 2.573 0 4.588 0.805 6.057 2.416 1.451 1.608 2.172 3.822 2.172 6.636v13.277c0.131 2.601 0.338 4.067 0.637 4.399 0.291 0.333 1.605 0.576 3.95 0.734l0.492 0.024v1.626h-15.568v-1.626l0.495-0.024c2.34-0.158 3.663-0.401 3.954-0.734s0.505-1.798 0.629-4.399v-12.47c0-2.449-0.332-4.151-1.005-5.104-0.667-0.955-1.866-1.432-3.59-1.432-1.214 0-2.572 0.363-4.077 1.088-1.507 0.726-3.147 1.824-4.93 3.292v14.626c0 2.375 0.198 3.789 0.601 4.241 0.399 0.455 1.718 0.752 3.958 0.893l0.519 0.024v1.626h-15.568v-1.626l0.522-0.024c2.216-0.14 3.529-0.443 3.941-0.906 0.413-0.46 0.616-1.871 0.616-4.228v-27.84c0-2.355-0.203-3.765-0.616-4.228-0.412-0.463-1.725-0.763-3.941-0.905l-0.522-0.026v-1.624h10.491v18.265z" fill="#010101"/>
	<path d="m241.21 42.637c-4.401 0-7.875-1.333-10.424-3.997-2.554-2.664-3.827-6.294-3.827-10.89 0-4.594 1.273-8.221 3.827-10.876 2.549-2.657 6.022-3.985 10.424-3.985 4.42 0 7.904 1.328 10.445 3.985 2.538 2.655 3.81 6.282 3.81 10.876 0 4.596-1.276 8.226-3.825 10.89-2.55 2.664-6.02 3.997-10.43 3.997zm-0.01-1.589c2.446 0 4.476-1.256 6.098-3.768 1.616-2.511 2.422-5.683 2.422-9.516 0-3.799-0.806-6.963-2.422-9.491-1.622-2.531-3.651-3.793-6.098-3.793-2.423 0-4.448 1.263-6.066 3.793-1.616 2.528-2.428 5.692-2.428 9.491 0 3.833 0.807 7.004 2.414 9.516 1.62 2.512 3.65 3.768 6.09 3.768z" fill="#010101"/>
	<path d="m266.49 0.595v34.623c0 2.375 0.199 3.789 0.598 4.241 0.402 0.455 1.722 0.752 3.961 0.893l0.519 0.024v1.626h-15.568v-1.626l0.521-0.024c2.214-0.14 3.53-0.443 3.938-0.906 0.412-0.46 0.621-1.871 0.621-4.228v-27.84c0-2.355-0.209-3.765-0.621-4.228-0.407-0.463-1.724-0.763-3.938-0.905l-0.521-0.026v-1.624h10.49z" fill="#010101"/>
	<path d="m293.2 38.097c-3.229 3.026-6.419 4.54-9.576 4.54-2.528 0-4.642-0.764-6.33-2.294-1.689-1.529-2.533-3.448-2.533-5.755 0-2.691 1.104-4.875 3.305-6.554 2.51-1.923 6.77-2.884 12.77-2.884h1.126v-3.541c0-4.493-1.789-6.74-5.371-6.74-1.673 0-3.151 0.493-4.439 1.479-0.75 0.599-1.228 1.823-1.431 3.67l-0.028 0.503h-3.67v-5.229c3.814-1.603 7.354-2.403 10.615-2.403 6.491 0 9.736 2.84 9.736 8.516v12.681c0 2.271 0.209 3.869 0.621 4.797 0.412 0.925 1.129 1.386 2.157 1.386 0.365 0 0.853-0.076 1.461-0.228l0.162 1.94c-1.304 0.436-2.467 0.655-3.494 0.655-2.68 0.001-4.38-1.512-5.09-4.539zm-1.24-0.583v-10.775h-1.266c-3.193 0-5.69 0.631-7.488 1.893-1.802 1.261-2.702 2.996-2.702 5.203 0 1.647 0.562 3.013 1.684 4.101 1.115 1.086 2.516 1.628 4.183 1.628 1.59 0 3.45-0.684 5.6-2.05z" fill="#010101"/>
	<path d="m315.64 21.263v13.955c0 2.357 0.219 3.769 0.649 4.241 0.431 0.473 1.748 0.77 3.953 0.893l1.181 0.024v1.626h-16.272v-1.626l0.523-0.024c2.216-0.14 3.525-0.443 3.938-0.906 0.413-0.46 0.619-1.871 0.619-4.228v-14.91c0-2.355-0.206-3.761-0.619-4.215-0.412-0.454-1.722-0.76-3.938-0.917l-0.523-0.026v-1.625h10.489v5.334c2.479-3.979 5.719-5.971 9.721-5.971 0.552 0 1.167 0.094 1.846 0.283v7.772h-3.039l-0.028-0.47c-0.201-1.619-0.382-2.582-0.538-2.886-0.157-0.306-0.575-0.459-1.256-0.459-2.71 0.002-4.95 1.379-6.7 4.135z" fill="#010101"/>
	<g fill="#2E62AE">
		<path d="m104.79 59.118h2.556v17.728h8.53v2.056h-11.086v-19.784z"/>
		<path d="m119.72 71.316c0.111 4.418 2.167 5.974 4.362 5.974 2.668 0 3.695-2 3.945-2.89l2.14 0.75c-1.056 2.528-3.084 4.084-6.085 4.084-5.835 0-6.919-5.224-6.919-8.558 0-3.307 1.084-8.53 6.919-8.53 4.724 0 6.419 4.084 6.419 7.947v1.223h-10.78zm8.22-1.834c0-2.945-1.334-5.391-3.945-5.391-2.557 0-3.946 2.028-4.279 5.391h8.22z"/>
		<path d="m133.31 66.259c0.75-1.973 1.973-4.112 5.946-4.112 4.862 0 5.501 3.306 5.501 6.196v8.641c0 0.361 0 1 0.139 1.917h-2.584v-2.779h-0.056c-1.583 2.084-3.195 2.945-5.14 2.945-3.391 0-4.585-2.5-4.585-4.64 0-3.751 2.89-5.641 7.419-5.641h2.361v-1.056c0-1.112 0-3.751-3.195-3.751-2.028 0-2.973 1.14-3.695 2.918l-2.11-0.638zm7.22 4.363c-3.501 0-5.557 1.111-5.557 3.584 0 1.5 0.723 2.917 2.751 2.917 1 0 2.334-0.25 4.584-2.807v-3.695h-1.77z"/>
		<path d="m148.43 62.48h2.445v2.918h0.056c1.444-2.001 3.361-3.084 5.418-3.084v2.445c-1.223 0-3.418 0-5.474 2.75v11.393h-2.445v-16.422z"/>
		<path d="m158.71 62.48h2.445v2.667c1.333-1.195 3.056-3 5.557-3 2.528 0 4.085 1.528 4.057 4.64v12.115h-2.444v-11.226c0-1.667-0.39-3.307-2.418-3.307-2.278 0-3.751 1.667-4.751 2.834v11.698h-2.445v-16.421z"/>
		<path d="m174.72 57.312h2.723v2.445h-2.723v-2.445zm0.14 5.168h2.445v16.422h-2.445v-16.422z"/>
		<path d="m181.39 62.48h2.445v2.667c1.333-1.195 3.056-3 5.557-3 2.528 0 4.085 1.528 4.057 4.64v12.115h-2.444v-11.226c0-1.667-0.39-3.307-2.418-3.307-2.278 0-3.751 1.667-4.751 2.834v11.698h-2.445v-16.421z"/>
		<path d="m210.15 64.147h-2.945c0.944 0.917 1.333 1.806 1.333 3.307 0 2.334-1.528 5.112-6.196 5.112-0.583 0-0.973-0.055-1.278-0.139-0.556 0.472-0.806 0.75-0.806 1.25 0 0.583 0.223 0.806 2.14 1.25l2.668 0.611c2.445 0.556 4.668 1.362 4.668 4.307 0 3.501-3.779 4.668-7.113 4.668-3.445 0-6.669-1.111-6.669-4.112 0-2.167 1.39-3.279 3.112-4.334-0.39-0.195-1.14-0.556-1.14-1.64 0-1.195 0.778-1.778 1.64-2.417-1.056-0.389-3.14-1.778-3.14-4.612s1.973-5.251 5.974-5.251c1.167 0 2.001 0.139 2.724 0.333h5.029v1.667zm-9.42 12.643c-1.39 0.889-2.445 1.89-2.445 3.307 0 2.056 2.778 2.584 4.752 2.584 2.75 0 4.251-1.167 4.251-2.667 0-1.056-0.417-1.778-2.64-2.306l-3.91-0.918zm1.75-5.891c2.056 0 3.723-1.223 3.723-3.64 0-2.278-1.584-3.445-3.723-3.445-2.14 0-3.724 1.167-3.724 3.445 0 2.418 1.66 3.64 3.72 3.64z"/>
		<path d="m236.61 78.902h-3.168l-1.751-2.028c-1.473 1.195-2.89 2.362-5.724 2.362-5.279 0-6.669-3.612-6.669-5.668 0-2.862 1.945-4.39 4.112-5.363-1.556-1.723-2.528-2.806-2.528-4.779 0-2.5 1.973-4.724 5.529-4.724 3.891 0 5.252 2.751 5.252 4.39 0 3.307-2.918 4.807-4.418 5.585l4.501 4.862c1.084-1.667 1.528-3.39 1.557-5.196h2.445c-0.111 1.528-0.306 4.029-2.445 6.918l3.31 3.641zm-11.62-9.197c-2.195 1.167-3.14 1.917-3.14 3.89 0 2.195 1.695 3.695 4.057 3.695 1.751 0 3.224-0.806 4.335-1.945l-5.25-5.64zm0.64-2.418c2.223-1.111 3.473-2.167 3.473-3.834 0-1.611-0.973-2.806-2.917-2.806-1.667 0-2.751 1.167-2.751 2.834 0.01 1.583 1.37 2.945 2.2 3.806z"/>
		<path d="m246.86 59.118h11.892v2.056h-9.336v6.446h8.864v2.056h-8.864v7.169h9.614v2.056h-12.17v-19.783z"/>
		<path d="m262.01 66.259c0.75-1.973 1.973-4.112 5.946-4.112 4.862 0 5.501 3.306 5.501 6.196v8.641c0 0.361 0 1 0.139 1.917h-2.584v-2.779h-0.056c-1.583 2.084-3.195 2.945-5.14 2.945-3.391 0-4.585-2.5-4.585-4.64 0-3.751 2.89-5.641 7.419-5.641h2.361v-1.056c0-1.112 0-3.751-3.195-3.751-2.028 0-2.973 1.14-3.695 2.918l-2.11-0.638zm7.23 4.363c-3.501 0-5.557 1.111-5.557 3.584 0 1.5 0.723 2.917 2.751 2.917 1 0 2.334-0.25 4.584-2.807v-3.695h-1.77z"/>
		<path d="m277.13 62.48h2.445v2.918h0.056c1.444-2.001 3.361-3.084 5.418-3.084v2.445c-1.223 0-3.418 0-5.474 2.75v11.393h-2.445v-16.422z"/>
		<path d="m287.41 62.48h2.445v2.667c1.333-1.195 3.056-3 5.557-3 2.528 0 4.085 1.528 4.057 4.64v12.115h-2.444v-11.226c0-1.667-0.39-3.307-2.418-3.307-2.278 0-3.751 1.667-4.751 2.834v11.698h-2.445v-16.421z"/>
		<path d="m303.42 57.312h2.723v2.445h-2.723v-2.445zm0.14 5.168h2.445v16.422h-2.445v-16.422z"/>
		<path d="m310.09 62.48h2.445v2.667c1.333-1.195 3.056-3 5.557-3 2.528 0 4.085 1.528 4.057 4.64v12.115h-2.444v-11.226c0-1.667-0.39-3.307-2.418-3.307-2.278 0-3.751 1.667-4.751 2.834v11.698h-2.445v-16.421z"/>
		<path d="m338.85 64.147h-2.945c0.944 0.917 1.333 1.806 1.333 3.307 0 2.334-1.528 5.112-6.196 5.112-0.583 0-0.973-0.055-1.278-0.139-0.556 0.472-0.806 0.75-0.806 1.25 0 0.583 0.223 0.806 2.14 1.25l2.668 0.611c2.445 0.556 4.668 1.362 4.668 4.307 0 3.501-3.779 4.668-7.113 4.668-3.445 0-6.669-1.111-6.669-4.112 0-2.167 1.39-3.279 3.112-4.334-0.39-0.195-1.14-0.556-1.14-1.64 0-1.195 0.778-1.778 1.64-2.417-1.056-0.389-3.14-1.778-3.14-4.612s1.973-5.251 5.974-5.251c1.167 0 2.001 0.139 2.724 0.333h5.029v1.667zm-9.42 12.643c-1.39 0.889-2.445 1.89-2.445 3.307 0 2.056 2.778 2.584 4.752 2.584 2.75 0 4.251-1.167 4.251-2.667 0-1.056-0.417-1.778-2.64-2.306l-3.91-0.918zm1.75-5.891c2.056 0 3.723-1.223 3.723-3.64 0-2.278-1.584-3.445-3.723-3.445-2.14 0-3.724 1.167-3.724 3.445 0 2.418 1.67 3.64 3.72 3.64z"/>
	</g>
	<g fill="#2E62AE">
		<path d="m338.04 5.815h-1.863v-0.72h4.555v0.72h-1.863v5.69h-0.828v-5.69z"/>
		<path d="m341.46 5.096h1.387l1.566 4.294c0.117 0.306 0.225 0.72 0.27 0.846h0.036c0.045-0.126 0.153-0.54 0.271-0.846l1.611-4.294h1.359v6.41h-0.828v-5.015c0-0.261 0.018-0.621 0.027-0.729h-0.055c-0.099 0.288-0.188 0.567-0.288 0.837l-1.81 4.906h-0.684l-1.729-4.906c-0.1-0.271-0.189-0.549-0.279-0.837h-0.054c0.009 0.108 0.026 0.468 0.026 0.729v5.015h-0.828v-6.41z"/>
	</g>
</svg>
